# xmcd
#
# Track frame offsets:
#	150
#	17592
#	33662
#	51072
#	67871
#	83292
#	100843
#	114235
#	132092
#	148298
#	164715
#	181242
#	197006
#	215432
#
# Disc length: 3086 seconds
#
# Revision: 2
# Processed by: cddbd v1.5.2PL0 Copyright (c) Steve Scherf et al.
# Submitted via: audiograbber 1.83.01
#
DISCID=b90c0c0e
DTITLE=Star Disc - SD112
DYEAR=1900
DGENRE=Karaoke
TTITLE0=Keith, Toby - I Love this Bar
TTITLE1=McEntire, Reba - I'm Gonna Take that Mountain
TTITLE2=Paisley, Brad - Little Moments
TTITLE3=Twain, Shania - Shes not just a pretty face
TTITLE4=Adkins, Trace - Hot Mama
TTITLE5=Evans, Sara - Perfect
TTITLE6=Nichols, Joe - Cool to be a Fool
TTITLE7=Wynonna - Heaven Help Me
TTITLE8=Bates, Jeff - Rainbow Man
TTITLE9=McComas, Brian - You in my Head
TTITLE10=Dean, Roxie - Everyday Girl
TTITLE11=Williams, Hank Jr. - Im one of You
TTITLE12=Dalley, Amy - I Think Your Beautiful
TTITLE13=Coffey, Kellie - Texas Plates
EXTD=
EXTT0=
EXTT1=
EXTT2=
EXTT3=
EXTT4=
EXTT5=
EXTT6=
EXTT7=
EXTT8=
EXTT9=
EXTT10=
EXTT11=
EXTT12=
EXTT13=
PLAYORDER=
